<svg width="70" height="70" viewBox="0 0 70 70" fill="none" xmlns="http://www.w3.org/2000/svg">
<rect width="70" height="70" rx="20" fill="#5B99C2"/>
<path d="M35.0001 20.3061C26.7168 20.3061 20 27.0512 20 35.372C20 42.0285 24.298 47.676 30.258 49.6681C31.0077 49.8075 31.2829 49.3412 31.2829 48.9433C31.2829 48.584 31.2689 47.3973 31.2625 46.1384C27.0895 47.0497 26.2089 44.3608 26.2089 44.3608C25.5266 42.6194 24.5434 42.1562 24.5434 42.1562C23.1825 41.2212 24.646 41.2405 24.646 41.2405C26.1522 41.3467 26.9454 42.793 26.9454 42.793C28.2833 45.0962 30.4545 44.4303 31.3105 44.0453C31.4451 43.0717 31.8338 42.4069 32.2629 42.0308C28.9311 41.6499 25.4287 40.358 25.4287 34.5852C25.4287 32.9403 26.0146 31.5963 26.9742 30.5412C26.8184 30.1617 26.305 28.6295 27.1195 26.5542C27.1195 26.5542 28.3791 26.1493 31.2457 28.0986C32.4421 27.7648 33.7254 27.5974 35.0001 27.5916C36.2749 27.5974 37.5591 27.7646 38.7579 28.0986C41.6209 26.1494 42.8787 26.5543 42.8787 26.5543C43.6952 28.6294 43.1816 30.1619 43.0258 30.5412C43.9876 31.5963 44.5695 32.9403 44.5695 34.5852C44.5695 40.3718 41.0605 41.6459 37.7203 42.0189C38.2583 42.4864 38.7377 43.4033 38.7377 44.8089C38.7377 46.8246 38.7204 48.447 38.7204 48.9433C38.7204 49.3443 38.9904 49.814 39.7507 49.6659C45.7074 47.6717 50 42.0264 50 35.3722C50 27.0512 43.2841 20.3061 35.0001 20.3061ZM25.6181 41.7678C25.585 41.8427 25.4677 41.8652 25.361 41.8137C25.2521 41.7646 25.1911 41.6626 25.2262 41.5875C25.2586 41.5104 25.3761 41.4889 25.4846 41.5405C25.5936 41.5897 25.6557 41.6927 25.6181 41.7678ZM26.3559 42.4291C26.2844 42.4957 26.1445 42.4647 26.0496 42.3595C25.9515 42.2545 25.9331 42.114 26.0056 42.0464C26.0795 41.9798 26.215 42.011 26.3134 42.116C26.4116 42.2223 26.4305 42.3617 26.3559 42.4291ZM26.8621 43.2751C26.7702 43.3393 26.6199 43.2791 26.527 43.1452C26.4351 43.0112 26.4351 42.8506 26.529 42.7862C26.6221 42.7218 26.7702 42.7797 26.8643 42.9127C26.9559 43.0489 26.9559 43.2095 26.862 43.2752L26.8621 43.2751ZM27.7181 44.255C27.6359 44.3461 27.4607 44.3216 27.3325 44.1973C27.2014 44.0758 27.165 43.9035 27.2475 43.8124C27.3307 43.7211 27.5068 43.7467 27.6359 43.8701C27.766 43.9913 27.8059 44.1649 27.7181 44.255ZM28.8246 44.5857C28.7882 44.7038 28.6195 44.7574 28.4497 44.7073C28.28 44.6556 28.169 44.5174 28.2032 44.3982C28.2385 44.2793 28.408 44.2235 28.5791 44.2772C28.7485 44.3285 28.8598 44.4657 28.8246 44.5857ZM30.0836 44.7261C30.0879 44.8503 29.9438 44.9533 29.7655 44.9557C29.5862 44.9597 29.441 44.8591 29.439 44.7367C29.439 44.6114 29.5798 44.5093 29.7593 44.5063C29.9376 44.5027 30.0836 44.6025 30.0836 44.7261ZM31.3205 44.6785C31.3419 44.7997 31.218 44.9242 31.0408 44.9574C30.8668 44.9893 30.7055 44.9145 30.6834 44.7943C30.6618 44.67 30.788 44.5455 30.9618 44.5133C31.1393 44.4824 31.2979 44.5552 31.3205 44.6785Z" fill="#1A4870"/>
</svg>
