<svg width="70" height="70" viewBox="0 0 70 70" fill="none" xmlns="http://www.w3.org/2000/svg">
<rect width="70" height="70" rx="20" fill="#5B99C2"/>
<g clip-path="url(#clip0_6_64)">
<path d="M45.9905 35.1924C45.9905 34.3496 45.9224 33.7346 45.7752 33.0968H36.1992V36.9008H41.8201C41.7068 37.8462 41.0948 39.2698 39.7349 40.2265L39.7159 40.3538L42.7436 42.7111L42.9534 42.7322C44.8798 40.944 45.9905 38.3131 45.9905 35.1924Z" fill="#1A4870"/>
<path d="M36.1992 45.2151C38.953 45.2151 41.2648 44.3039 42.9534 42.7322L39.7349 40.2265C38.8737 40.8301 37.7177 41.2515 36.1992 41.2515C33.5021 41.2515 31.213 39.4635 30.397 36.992L30.2773 37.0022L27.1291 39.4509L27.0879 39.5659C28.7651 42.9144 32.2102 45.2151 36.1992 45.2151Z" fill="#1A4870"/>
<path d="M30.397 36.992C30.1816 36.3542 30.057 35.6708 30.057 34.9647C30.057 34.2585 30.1816 33.5752 30.3856 32.9374L30.3799 32.8015L27.1922 30.3135L27.0879 30.3634C26.3966 31.7529 26 33.3132 26 34.9647C26 36.6161 26.3966 38.1764 27.0879 39.5659L30.397 36.992Z" fill="#1A4870"/>
<path d="M36.1992 28.6777C38.1144 28.6777 39.4062 29.5092 40.1429 30.204L43.0213 27.3794C41.2535 25.7279 38.953 24.7143 36.1992 24.7143C32.2102 24.7143 28.7651 27.0149 27.0879 30.3633L30.3856 32.9374C31.213 30.4659 33.5021 28.6777 36.1992 28.6777Z" fill="#1A4870"/>
</g>
<defs>
<clipPath id="clip0_6_64">
<rect width="20" height="20.5714" fill="white" transform="translate(26 24.7143)"/>
</clipPath>
</defs>
</svg>
