<svg width="504" height="367" viewBox="0 0 504 367" fill="none" xmlns="http://www.w3.org/2000/svg">
<g clip-path="url(#clip0_6_174)">
<path opacity="0.16" d="M265.3 246.118L262.497 244.094L261.541 243.404L258.039 240.875L258.11 237.552L257.715 237.566L256.764 237.604L256.516 237.614L256.754 235.923V235.918L257.325 231.904H257.692L261.213 231.895L261.479 229.2L262.393 220.009L266.042 183.258L266.889 174.744L265.994 171.387L262.126 156.906L261.16 153.282L257.297 138.811L256.331 135.188L252.463 120.707L251.497 117.083L247.633 102.608L246.848 99.6648L246.668 99.6601L246.087 99.6458H246.086L245.231 96.3404C245.731 96.0168 246.206 95.6409 246.648 95.2126V95.2078C246.982 94.8888 247.3 94.5364 247.595 94.1554C247.671 94.065 247.743 93.9697 247.809 93.8745C248.932 96.2887 250.098 98.6744 251.43 100.955C251.668 101.37 251.916 101.779 252.168 102.184C252.244 102.303 252.315 102.422 252.387 102.546C253.885 105.017 255.027 107.641 256.226 110.298C256.236 110.322 256.245 110.341 256.255 110.365C256.669 111.279 256.883 111.598 257.183 111.579C257.244 111.579 257.311 111.56 257.387 111.526L259.386 115.531C259.238 116.574 259.604 117.669 260.456 118.412C260.632 118.564 260.818 118.693 261.013 118.798C261.313 118.969 261.636 119.083 261.969 119.145C263.054 119.35 264.215 118.988 264.99 118.093C265.438 117.574 265.695 116.96 265.761 116.326C265.785 116.088 265.785 115.85 265.756 115.617C265.671 114.845 265.304 114.107 264.672 113.555C264.429 113.341 264.158 113.174 263.872 113.045L262.102 109.155C262.25 109.031 262.364 108.907 262.445 108.774C262.978 107.893 262.388 106.355 261.907 105.117C261.712 104.612 261.536 104.155 261.46 103.817C261.232 102.765 261.07 101.731 260.937 100.679C260.899 100.374 260.861 100.07 260.827 99.7601C260.389 95.8602 259.533 91.727 257.987 88.0985C257.682 87.3889 257.378 86.6747 257.073 85.9604C256.754 85.2223 256.436 84.4795 256.112 83.7414C254.875 80.8891 253.605 78.0463 252.272 75.2464C251.958 74.5798 251.64 73.9131 251.311 73.2512C251.169 72.9512 251.021 72.6513 250.874 72.3513C249.841 70.2608 248.718 68.1514 247.481 66.1562V66.1514C247.167 65.6562 246.853 65.1657 246.52 64.6895V64.6848C246.463 64.5896 246.401 64.4991 246.339 64.4086C246.101 64.061 245.84 63.7277 245.564 63.4134C245.897 63.0563 246.211 62.6801 246.51 62.2706C246.853 61.8039 247.172 61.2944 247.457 60.7277C248.742 58.1612 249.327 54.4041 248.299 47.9186C249.446 43.7806 249.056 39.4569 247.353 35.6665C247.072 35.0475 246.753 34.438 246.406 33.8522C246.401 33.838 246.396 33.8237 246.392 33.8142C246.111 33.0713 245.725 32.3618 245.226 31.6904C245.654 31.6428 246.054 31.5142 246.382 31.2904C246.877 30.9618 247.205 30.4238 247.205 29.6381C247.205 29.5857 247.205 29.5333 247.2 29.4809C247.153 28.6524 246.844 27.9334 246.363 27.3286C245.949 26.8 245.402 26.3572 244.788 26.0001C244.227 25.6715 243.408 25.1906 242.552 24.8382C242.238 24.7049 241.914 24.5906 241.6 24.5096C240.996 24.3525 240.416 24.3144 239.945 24.4954C238.969 24.8715 238.907 25.7001 239.231 26.5143C238.76 26.2048 238.279 25.9287 237.799 25.7001C237.48 25.5477 237.161 25.4144 236.842 25.3096C235.52 24.862 234.211 24.8382 233.045 25.5572C232.927 25.6239 232.812 25.7048 232.698 25.7905C232.498 25.9429 232.298 26.0858 232.094 26.2191C231.575 26.5715 231.042 26.8762 230.5 27.1429C229.962 27.0429 229.434 26.8667 228.916 26.5905C228.706 26.481 228.497 26.381 228.287 26.3048C227.973 26.181 227.655 26.0905 227.336 26.0286C226.061 25.7905 224.762 26.0286 223.539 26.6C223.215 26.7429 222.901 26.9143 222.587 27.1048C221.098 28.019 219.766 29.3904 218.8 30.8904C218.429 31.4666 218.11 32.0666 217.858 32.6665C217.03 34.6236 216.902 36.5855 217.882 37.9045C218.044 38.1236 218.234 38.3235 218.457 38.5045C218.6 39.0092 218.729 39.5426 218.843 40.1044C219.866 45.152 219.775 52.228 218.919 58.404C218.829 59.0611 218.729 59.7039 218.619 60.3372C218.396 60.5135 218.182 60.6944 217.977 60.8753C217.282 61.4944 216.702 62.1515 216.221 62.8324H216.217L216.212 62.8387C215.445 63.333 214.773 63.9543 214.19 64.6753C213.842 65.0895 213.528 65.5419 213.243 66.0181C210.869 69.9894 210.288 75.9654 210.288 81.732C210.288 86.1794 210.631 90.5079 210.769 93.7031C210.826 95.0554 210.854 96.4077 210.873 97.7649C210.826 97.6887 210.783 97.603 210.74 97.5173C210.783 97.6125 210.83 97.703 210.873 97.7887V97.7934C210.945 102.522 210.907 107.269 211.558 111.922C211.944 114.655 211.968 117.374 211.982 120.145V120.15C210.726 124.74 210.169 129.859 211.378 134.807C214.922 149.364 212.929 235.404 212.929 235.404L213.961 235.29L214.913 235.19L218.71 234.776L219.661 234.671L220.423 234.585L220.356 237.809L219.676 237.837L219.143 237.856L218.738 241.713V241.728L217.92 249.566L218.772 249.585L219.723 249.604L221.403 249.637L222.088 246.361L223.525 249.499L223.61 249.685L224.476 249.704L228.287 249.78L229.239 249.799L232.831 249.875C232.903 249.875 232.974 249.875 233.041 249.866C233.388 249.842 233.712 249.728 233.987 249.547C234.549 249.189 234.93 248.561 234.944 247.842C234.958 247.161 234.639 246.518 234.087 246.118L233.973 246.037L233.022 245.347L229.206 242.594L228.254 241.904L226.827 240.875L226.898 237.552L225.304 237.614L225.813 233.999L228.216 233.737L229.168 233.633L232.969 233.218L233.721 233.138L232.827 199.4V199.372L231.418 146.345L232.612 148.635L233.569 150.473V150.478L237.408 157.825V157.83L238.365 159.673L242.2 167.03L243.161 168.868L246.991 176.22V176.225L247.952 178.058L248.442 179.001L247.976 183.972V183.982L247.067 193.724V193.734L243.494 231.947L247.229 231.938L248.181 231.933L251.687 231.923L251.568 237.809L250.355 237.856L249.137 249.566L252.058 249.628L252.615 249.637L253.005 247.789V247.785L253.305 246.361L254.823 249.685L256.811 249.728L257.768 249.747L261.569 249.823L262.521 249.842L264.044 249.875C265.186 249.899 266.132 248.989 266.161 247.842C266.175 247.161 265.852 246.518 265.3 246.118ZM221.798 56.9469C222.231 57.3183 222.521 56.2897 222.706 55.5422C222.854 54.966 222.935 54.5565 222.982 55.0707C222.987 55.0993 222.987 55.5564 222.982 56.204C222.892 56.3326 222.802 56.4564 222.711 56.5755C222.354 57.0469 221.997 57.4755 221.607 57.885C221.698 57.4993 221.769 57.1707 221.798 56.9469ZM222.583 100.874L222.725 101.084L222.578 101.227C222.583 101.108 222.583 100.993 222.583 100.874ZM222.606 98.9934C222.625 97.4744 222.64 95.9554 222.64 94.4364C222.673 94.4269 222.711 94.4221 222.749 94.4174L222.857 98.9981L222.606 98.9934Z" fill="#1A4870"/>
<path d="M183.209 11.4969C183.209 22.5443 174.264 31.4964 163.226 31.4964C161.242 31.4964 159.324 31.2059 157.516 30.6679C157.193 30.5726 156.879 30.4678 156.565 30.3536V13.7968C156.565 8.58271 160.79 4.35424 166 4.35424H181.896C182.015 4.66851 182.129 4.98281 182.229 5.3066C182.867 7.25415 183.209 9.33505 183.209 11.4969Z" fill="#1F316F"/>
<path d="M164.653 240.062C175.692 240.062 184.637 249.015 184.637 260.062C184.637 262.048 184.346 263.967 183.809 265.776C183.714 266.1 183.609 266.414 183.495 266.728H166.951C161.741 266.728 157.516 262.5 157.516 257.286V241.377C157.83 241.258 158.144 241.143 158.468 241.043C160.414 240.405 162.493 240.062 164.653 240.062Z" fill="#1F316F"/>
<path d="M290.739 259.11C290.739 248.062 299.684 239.11 310.723 239.11C312.707 239.11 314.624 239.4 316.432 239.939C316.756 240.034 317.07 240.139 317.384 240.253V256.81C317.384 262.024 313.159 266.252 307.949 266.252H292.052C291.934 265.938 291.819 265.624 291.719 265.3C291.082 263.352 290.739 261.271 290.739 259.11Z" fill="#1F316F"/>
<path d="M317.384 13.7968V29.5726C315.704 30.3726 313.896 30.944 311.998 31.244C310.961 31.4107 309.9 31.4964 308.82 31.4964C297.781 31.4964 288.836 22.5442 288.836 11.4969C288.836 10.6684 288.888 9.84932 288.988 9.04934C289.183 7.41605 289.578 5.8399 290.149 4.35423H307.949C313.159 4.35423 317.384 8.5827 317.384 13.7968Z" fill="#1F316F"/>
<path d="M307.949 4.35425H166C160.79 4.35425 156.565 8.58271 156.565 13.7968V257.762C156.565 262.976 160.79 267.205 166 267.205H307.949C313.159 267.205 317.384 262.976 317.384 257.762V13.7968C317.384 8.58271 313.159 4.35425 307.949 4.35425ZM316.432 50.8864V257.762C316.432 262.452 312.635 266.252 307.949 266.252H166C161.313 266.252 157.516 262.452 157.516 257.762V13.7968C157.516 9.10649 161.313 5.3066 166 5.3066H270.889C277.322 5.3066 283.441 6.63989 288.988 9.04936C299.075 13.4254 307.268 21.349 311.998 31.244C314.838 37.1915 316.432 43.8532 316.432 50.8864Z" fill="#1F316F"/>
<path d="M266.864 183.397H265.907L265.874 175.483L265.865 172.345L265.86 171.493H266.811L266.821 174.455L266.826 174.974L266.864 183.397Z" fill="#1A4870"/>
<path d="M215.054 235.167L214.103 235.267L213.66 131.27L213.622 122.437L213.598 117.213L213.594 115.67L213.522 98.6089L213.475 87.1616V87.1569L213.384 65.9955C213.67 65.5193 213.984 65.067 214.331 64.6527L214.341 67.9526V67.9669L214.393 79.7332V79.738L214.398 80.8427L214.474 98.2994L214.536 113.399L214.55 117.037L214.574 122.351L214.612 131.779L215.054 235.167Z" fill="#1A4870"/>
<path d="M219.803 234.648L218.851 234.753L218.413 130.327L218.399 127.103L218.375 122.123L218.309 106.261L218.266 95.9995V95.9947L218.157 69.7383L218.118 60.8528L218.023 37.8819L218.019 36.7677L218 33.1297V32.644C218.252 32.044 218.57 31.444 218.942 30.8678L218.946 31.644L218.975 38.7486L218.984 40.0819L219.061 58.3814L219.065 60.0813L219.08 62.5813L219.108 69.9525L219.218 95.5138L219.256 104.804L219.317 119.942V119.961L219.803 234.648Z" fill="#1A4870"/>
<path d="M219.865 249.581L218.913 249.562L218.88 241.705V241.691L218.899 241.491H219.831L219.865 249.581Z" fill="#1A4870"/>
<path d="M224.618 249.681L223.752 249.662L223.666 249.476L223.628 240.072L223.619 237.662L223.604 234.234L223.552 221.763L223.038 100.718V100.637L223.033 98.9756L223.014 94.3709L222.981 87.1854L222.853 56.5529L222.848 55.5196L222.805 44.877L222.772 37.0772L222.753 33.163L222.738 29.6202L222.729 27.0822C223.043 26.8917 223.357 26.7203 223.68 26.5775L223.69 29.3488L223.7 31.8488V31.8535L223.719 36.3439L223.761 46.1769L223.799 55.2148L223.823 60.729L223.933 87.0664L223.966 94.2138L223.985 99.0041L224.004 104.233L224.504 221.782L224.556 234.129L224.57 237.624L224.58 240.096L224.618 249.681Z" fill="#1A4870"/>
<path d="M229.309 233.61L228.358 233.715L228.31 221.844L227.81 104.128L227.787 99.1089L227.768 94.3328L227.734 86.5854L227.62 59.9766L227.587 51.5959L227.577 49.0531L227.525 37.3581L227.492 28.9441L227.487 28.3346L227.477 26.006C227.796 26.068 228.115 26.1584 228.429 26.2822L228.438 28.0298V28.5536L228.477 37.2867L228.529 49.4388L228.538 51.4578L228.572 59.8861L228.686 86.4664L228.719 94.5852L228.738 99.1375L228.762 104.099L229.309 233.61Z" fill="#1A4870"/>
<path d="M229.381 249.776L228.429 249.757L228.396 241.881L229.347 242.572L229.381 249.776Z" fill="#1A4870"/>
<path d="M233.71 150.45L232.754 148.612L232.564 103.995L232.545 99.2422L232.53 96.109L232.488 85.9854L232.378 60.029L232.345 51.7102L232.335 50.0483L232.278 35.8963L232.245 27.906L232.24 27.2536L232.235 26.1965C232.44 26.0632 232.64 25.9203 232.84 25.768C232.954 25.6822 233.068 25.6013 233.187 25.5346L233.192 27.2156L233.196 27.9536L233.22 33.5011L233.287 49.9959L233.296 51.872L233.33 60.2052L233.349 64.6717L233.439 85.8616L233.487 96.5233L233.496 99.2661L233.515 103.971L233.71 150.45Z" fill="#1A4870"/>
<path d="M234.129 249.524C233.853 249.705 233.53 249.819 233.182 249.843L233.163 245.324L234.115 246.015L234.129 249.524Z" fill="#1A4870"/>
<path d="M237.55 157.807V157.803L237.322 103.866L237.303 99.3708H237.298L237.293 97.709L237.241 85.3807L237.179 70.7382L237.15 64.0336L237.141 61.7956V61.4813L237.117 55.8005V55.7958L237.103 52.9673L237.088 48.9007V48.8959L237.031 35.7582L237.003 29.0155L236.993 27.0299L236.984 25.287C237.303 25.3918 237.621 25.5251 237.94 25.6775L237.945 27.1394L237.954 29.5441L237.978 35.2201L238.035 48.3626L238.059 53.9482L238.073 57.391L238.088 60.1338V60.1385L238.092 61.9385L238.102 63.7194L238.14 73.2239L238.192 85.2617L238.245 97.8375L238.254 99.3994L238.268 103.837L238.506 159.65L237.55 157.807Z" fill="#1A4870"/>
<path d="M243.302 168.845L242.341 167.007L242.075 103.733L242.056 99.5042L242.051 97.6756L241.994 84.7807L241.98 81.4284L241.908 64.2146L241.894 61.1051V60.8242L241.889 59.8718L241.837 47.6007L241.823 44.3818V44.0342L241.804 39.3581L241.78 33.5011L241.766 29.9155L241.761 29.5298L241.756 28.5584V28.3298L241.742 24.487C242.056 24.568 242.379 24.6823 242.693 24.8156L242.712 29.1536V29.2012L242.717 30.6964L242.722 31.644L242.741 35.6963V35.7058L242.755 39.4629L242.765 41.6057V42.1723L242.789 47.6007L242.841 59.6433L242.846 60.9432V61.1099L242.865 64.886L242.941 83.3046L242.955 86.9616L242.998 97.428V97.4328L243.007 99.5327L243.026 103.709L243.302 168.845Z" fill="#1A4870"/>
<path d="M247.594 59.5909H246.642L246.614 52.9244L246.571 43.4008L246.566 41.7961L246.547 36.7344H247.499L247.527 43.4008L247.566 52.9244L247.594 59.5909Z" fill="#1A4870"/>
<path d="M247.594 31.4964H246.642L246.614 29.2742L246.571 26.0997L246.566 25.5648L246.547 23.8775H247.499L247.527 26.0997L247.566 29.2742L247.594 31.4964Z" fill="#1A4870"/>
<path d="M247.737 92.9234H246.78L246.776 91.2853L246.742 83.3998L246.709 75.781L246.685 69.5621V69.5573L246.676 67.2097H247.627L247.646 71.7668V71.7715L247.661 75.781L247.694 83.3998L247.737 92.9234Z" fill="#1A4870"/>
<path d="M247.132 176.202V176.197L246.828 103.599L246.818 101.923V101.914L246.809 99.6375L246.99 99.6422L247.775 102.585L248.094 178.035L247.132 176.202Z" fill="#1A4870"/>
<path d="M248.322 231.91L247.37 231.915L247.266 206.73L247.209 193.711V193.702L247.328 192.445H248.155L248.213 206.73L248.322 231.91Z" fill="#1A4870"/>
<path d="M234.048 233.815L233.097 233.82L232.992 208.635L232.935 195.616V195.606L233.054 194.349H233.882L233.939 208.635L234.048 233.815Z" fill="#1A4870"/>
<path d="M252.519 100.542H251.572L251.538 92.9234L251.51 86.2569L251.5 84.195L251.462 75.781H252.414L252.461 86.2569L252.49 92.9234L252.519 100.542Z" fill="#1A4870"/>
<path d="M253.147 247.681H252.19L252.162 240.015L252.152 237.767L252.133 233.396L252.128 231.901L252.086 221.706L251.714 135.303L251.657 121.018H252.604L252.666 135.303L253.037 221.725L253.08 231.896L253.085 233.396L253.104 237.729L253.113 240.039L253.147 247.681Z" fill="#1A4870"/>
<path d="M256.363 109.59V109.161L256.349 106.147L256.325 100.542L256.301 95.3043L256.263 86.2569H257.215L257.253 95.3043L257.277 100.542L257.3 105.494L257.319 109.59H256.363Z" fill="#1A4870"/>
<path d="M257.824 230.539H256.877L256.839 221.806L256.815 216.253L256.553 154.35L256.491 140.065H257.443L257.505 154.35L257.767 216.253L257.79 221.825L257.819 229.363V229.382L257.824 230.539Z" fill="#1A4870"/>
<path d="M257.909 249.724L256.953 249.705L256.905 237.582L257.857 237.543L257.909 249.724Z" fill="#1A4870"/>
<path d="M262.106 117.685H261.149L261.116 109.771L261.107 106.633L261.102 105.78H262.054L262.063 108.742L262.068 109.261L262.106 117.685Z" fill="#1A4870"/>
<path d="M262.529 219.111H261.578L261.521 204.825L261.383 171.969L261.321 157.684H262.272L262.329 171.969L262.467 204.825L262.529 219.111Z" fill="#1A4870"/>
<path d="M262.663 249.819L261.711 249.8L261.687 244.348H262.639L262.663 249.819Z" fill="#1A4870"/>
<path d="M233.168 35.3058C234.219 35.3058 235.071 34.4531 235.071 33.4011C235.071 32.3492 234.219 31.4964 233.168 31.4964C232.117 31.4964 231.265 32.3492 231.265 33.4011C231.265 34.4531 232.117 35.3058 233.168 35.3058Z" fill="#1A4870"/>
<path d="M246.966 29.1155C248.017 29.1155 248.869 28.2627 248.869 27.2108C248.869 26.1589 248.017 25.3061 246.966 25.3061C245.915 25.3061 245.063 26.1589 245.063 27.2108C245.063 28.2627 245.915 29.1155 246.966 29.1155Z" fill="#1A4870"/>
<path d="M247.442 77.2095C248.493 77.2095 249.345 76.3567 249.345 75.3048C249.345 74.2528 248.493 73.4001 247.442 73.4001C246.391 73.4001 245.539 74.2528 245.539 75.3048C245.539 76.3567 246.391 77.2095 247.442 77.2095Z" fill="#1A4870"/>
<path d="M218.894 98.6375C219.945 98.6375 220.797 97.7847 220.797 96.7328C220.797 95.6808 219.945 94.8281 218.894 94.8281C217.843 94.8281 216.991 95.6808 216.991 96.7328C216.991 97.7847 217.843 98.6375 218.894 98.6375Z" fill="#1A4870"/>
<path d="M246.966 102.447C248.017 102.447 248.869 101.594 248.869 100.542C248.869 99.4903 248.017 98.6375 246.966 98.6375C245.915 98.6375 245.063 99.4903 245.063 100.542C245.063 101.594 245.915 102.447 246.966 102.447Z" fill="#1A4870"/>
<path d="M233.168 135.779C234.219 135.779 235.071 134.927 235.071 133.875C235.071 132.823 234.219 131.97 233.168 131.97C232.117 131.97 231.265 132.823 231.265 133.875C231.265 134.927 232.117 135.779 233.168 135.779Z" fill="#1A4870"/>
<path d="M224.128 189.111C225.179 189.111 226.031 188.259 226.031 187.207C226.031 186.155 225.179 185.302 224.128 185.302C223.077 185.302 222.225 186.155 222.225 187.207C222.225 188.259 223.077 189.111 224.128 189.111Z" fill="#1A4870"/>
<path d="M266.474 176.731C267.525 176.731 268.377 175.878 268.377 174.826C268.377 173.774 267.525 172.921 266.474 172.921C265.423 172.921 264.57 173.774 264.57 174.826C264.57 175.878 265.423 176.731 266.474 176.731Z" fill="#1A4870"/>
<path d="M439.035 355.576L430.013 355.575L425.721 320.745L439.037 320.746L439.035 355.576Z" fill="#A0616A"/>
<path d="M439.353 364.996L411.607 364.995V364.643C411.607 358.674 416.442 353.836 422.406 353.835L427.475 349.987L436.931 353.836L439.353 353.836L439.353 364.996Z" fill="#1A4870"/>
<path d="M398.643 355.576L389.62 355.575L385.328 320.745L398.645 320.746L398.643 355.576Z" fill="#A0616A"/>
<path d="M398.961 364.996L371.215 364.995V364.643C371.215 358.674 376.05 353.836 382.014 353.835L387.083 349.987L396.539 353.836L398.961 353.836L398.961 364.996Z" fill="#1A4870"/>
<path d="M450.203 121.698L441.126 71.7569C440.312 67.357 436.122 64.4237 431.714 65.168C427.087 65.949 424.062 70.454 425.086 75.0364L436.105 126.624L441.48 158.253C439.144 159.751 437.8 162.547 438.291 165.458C438.946 169.348 442.629 171.97 446.516 171.314C450.403 170.657 453.023 166.972 452.367 163.081C452.128 161.661 451.482 160.413 450.573 159.429L450.203 121.698Z" fill="#A0616A"/>
<path d="M451.756 117.291C452.411 116.416 452.344 115.234 451.682 114.363C451.29 113.847 450.384 112.604 451.032 112.565C454.087 112.384 444.988 65.7104 439.428 63.3C435.638 61.6567 421.262 47.4081 416.694 49.7689C414.757 50.7701 425.342 61.9384 424.475 63.9407C422.659 68.14 423.339 72.7777 424.033 77.2083L422.902 75.5885C423.745 80.3977 423.603 85.3775 422.489 90.131C423.53 89.7586 427.96 120.849 427.771 121.939C427.582 123.03 426.727 123.859 426.015 124.706C425.118 125.774 424.347 127.275 425.531 128.517C426.1 129.114 438.09 158.556 438.914 158.538C446.642 158.374 444.851 161.426 451.861 158.166C453.423 157.439 453.395 122.506 454.021 120.9C454.647 119.294 453.455 117.007 451.756 117.291Z" fill="white"/>
<path d="M430.637 136.125L444.275 171.492L439.542 249.199C439.542 249.199 454.72 283.946 446.442 314.534C438.164 345.123 446.378 316.653 446.378 316.653L445.326 338.759H427.456L425.492 328.52L426.383 318.547L407.262 200.357L402.821 210.373C402.821 210.373 399.033 229.786 400.007 253.362C401.042 278.422 406.718 308.003 402.26 317.611L402.821 341.005L386.552 341.566L372.47 259.689L369.16 252.295L371.405 247.803L368.545 236.868L378.137 150.672L430.637 136.125Z" fill="#1A4870"/>
<path d="M415.676 42.0068L396.717 40.8662C394.994 41.8649 394.823 43.0197 396.028 44.3128C394.055 45.4983 393.758 47.1665 395.034 49.2881L371.472 63.3244L382.692 132.383L378.094 150.348C373.794 153.487 374.161 172.096 376.065 176.111L444.989 180.468C446.958 176.539 442.192 160.499 439.257 157.19L438.743 131.515L437.375 63.2992L417.18 50.0706C419.086 48.4616 419.165 46.9207 416.325 45.4884C418.285 45.1088 417.419 43.7151 415.676 42.0068Z" fill="white"/>
<path d="M327.883 55.4867L368.245 76.5611C371.483 79.2255 376.259 78.7969 378.972 75.5984C381.819 72.2417 381.27 67.1817 377.77 64.5141L335.023 43.4321L315.794 14.7335C316.565 12.2468 315.842 9.42921 313.733 7.63774C310.916 5.24362 306.692 5.58903 304.3 8.40924C301.908 11.2294 302.253 15.4565 305.071 17.8506C306.099 18.7246 307.316 19.2294 308.562 19.386L327.883 55.4867Z" fill="#A0616A"/>
<path d="M329.509 60.1962C329.567 61.2205 356.201 74.0356 357.201 74.2606C357.794 74.394 358.348 74.7018 358.752 75.1572C358.831 75.2459 358.904 75.3396 358.97 75.4374C359.789 76.6491 361.062 77.4374 362.523 77.4743C364.869 77.5335 367.4 78.7885 369.437 80.1574C371.666 81.6553 373.848 83.2967 376.371 84.217C380.01 85.5446 384.636 85.1481 386.487 80.694C387.272 78.805 387.296 76.6796 386.709 74.7197C385.478 70.6096 382.191 67.6945 379.02 64.9358L395.654 49.7689C392.147 46.8285 375.957 64.0175 373.888 59.9344C359.378 46.1384 341.182 44.2752 341.181 43.2372C341.18 41.9288 340.828 40.386 339.23 40.2107C338.461 40.1265 317.342 13.9699 316.762 14.4807C311.318 19.2699 310.594 15.2561 307.533 21.8309C306.851 23.2963 325.186 57.4465 325.707 58.9769C326.227 60.5073 328.462 61.4268 329.509 60.1962Z" fill="white"/>
<path d="M415.881 36.8687C415.797 36.936 415.718 36.9866 415.634 37.0371C414.983 37.4694 414.305 37.8568 413.592 38.1881C413.581 38.1993 413.564 38.2049 413.547 38.2105C412.263 38.8169 410.877 39.2717 409.413 39.5412C407.915 39.8163 406.428 39.8893 404.981 39.7714C397.525 39.1819 391.107 33.6627 389.682 25.954C389.205 23.3825 389.34 20.8447 389.974 18.481C391.618 12.3724 396.627 7.44279 403.258 6.2132C412.453 4.51201 421.284 10.5925 422.983 19.7948C424.24 26.5996 421.244 33.208 415.881 36.8687Z" fill="#A0616A"/>
<path d="M403.522 29.3508C403.561 29.3283 403.651 29.2834 403.78 29.2329C403.758 29.2497 403.735 29.2609 403.713 29.2722C403.612 29.3171 403.55 29.3452 403.522 29.3508Z" fill="#1A4870"/>
<path d="M416.896 38.3902C416.627 37.8344 416.274 37.3178 415.881 36.8687C415.797 36.936 415.718 36.9866 415.634 37.0371C415.629 37.548 415.629 38.014 415.589 38.4632C414.961 38.452 414.293 38.3565 413.592 38.1881C413.368 38.1376 413.138 38.0758 412.908 38.0028L413.547 38.2105L414.019 38.3621C411.348 40.4227 405.3 41.6522 404.981 39.7714C404.964 39.6928 404.964 39.6086 404.97 39.5187C405.065 38.2891 403.287 34.4095 404.403 33.8929C405.514 33.382 406.697 32.8543 407.41 31.8549C408.117 30.8667 408.1 29.2272 407.04 28.6209C406.333 28.211 404.521 28.9016 403.803 29.2217C405.424 28.138 404.762 19.0088 401.261 18.3238C399.584 17.403 397.699 18.0487 395.775 18.6326C395.719 18.4754 395.651 18.3238 395.578 18.1778C395.309 17.622 394.956 17.1054 394.563 16.6563C394.484 16.5608 394.406 16.471 394.322 16.3868C394.316 16.5384 394.316 16.6844 394.316 16.8247C394.31 17.3356 394.31 17.8016 394.271 18.2508C394.249 18.5259 394.209 18.7954 394.142 19.0649C393.317 19.239 392.498 19.3176 391.691 19.1716C391.062 19.0593 389.942 19.0969 389.974 18.481C390.092 16.2275 389.447 14.8048 387.393 15.3481C387.59 15.1628 387.78 14.9663 387.965 14.7642C389.149 13.4728 387.988 11.4123 386.266 11.7267L386.221 11.7323C385.968 10.2894 388.521 6.04649 390.714 5.32782C391.404 5.10887 392.139 5.04147 392.863 5.11446C394.428 5.28292 395.045 3.12692 393.581 2.54302C393.547 2.53178 393.519 2.52054 393.486 2.50934C394.939 1.76259 397.075 0.78103 398.556 1.48285C400.026 2.18466 400.818 1.63738 401.155 3.23751C403.763 1.17136 406.731 -0.479316 409.491 0.127062C409.48 0.143886 409.474 0.155126 409.469 0.171958C409.401 0.323561 409.351 0.480785 409.3 0.637972C409.115 1.22749 409.014 1.84512 408.992 2.44025C408.981 2.56376 408.981 2.68168 408.981 2.7996C409.087 2.69292 409.188 2.59183 409.284 2.48519C409.643 2.12022 409.962 1.78337 410.299 1.48578C410.507 1.30049 410.72 1.13206 410.955 0.980455C411.04 0.924319 411.124 0.873775 411.208 0.828887C411.696 1.12644 412.173 1.51384 412.633 2.00793C415.326 4.88258 421.491 7.23507 421.491 7.23507C427.028 10.2669 428.055 36.762 416.896 38.3902Z" fill="#1A4870"/>
<path d="M54.2968 126.503L56.9969 84.6418C57.2458 80.9525 60.4062 78.1453 64.0961 78.3361C67.9683 78.5364 70.8806 81.9462 70.4754 85.8055L66.3387 129.203L64.9358 155.679C66.996 156.687 68.3652 158.854 68.2394 161.29C68.0713 164.546 65.2976 167.049 62.0442 166.881C58.7908 166.713 56.2897 163.937 56.4578 160.681C56.5192 159.492 56.9308 158.406 57.5832 157.511L54.2968 126.503Z" fill="#FFB6B6"/>
<path d="M127.74 322.933L126.115 334.391V334.42L125.578 338.232L124.708 344.353V344.361L124.345 346.938L123.801 350.772L118.94 350.67L117.489 350.634L116.727 350.62L116.799 347.236L116.981 338.261L117.307 322.715H117.373L118.824 322.744L124.621 322.868L126.072 322.897L127.74 322.933Z" fill="#FFB6B6"/>
<path d="M139.051 362.535C139.008 364.285 137.564 365.672 135.823 365.635L133.501 365.585L132.05 365.556L126.253 365.439L124.795 365.41L121.762 365.345L119.448 360.277L118.99 362.448V362.455L118.396 365.272L117.547 365.258L113.092 365.163L114.949 347.309L116.799 347.236L117.474 347.207L118.925 347.149L124.338 346.938H124.345L124.722 346.924L126.173 346.866L126.775 346.844L126.667 351.912L132.006 355.768L133.465 356.82L137.738 359.906C138.58 360.516 139.073 361.497 139.051 362.535Z" fill="#1A4870"/>
<path d="M80.1458 322.933L77.5267 341.427L76.7504 346.938L76.2062 350.772L75.4299 350.758L73.9789 350.721L69.1324 350.62L69.2049 347.236L69.3065 342.32L69.7128 322.715L73.8628 322.802L75.3139 322.831L80.1458 322.933Z" fill="#FFB6B6"/>
<path d="M91.4495 362.535C91.4277 363.631 90.8473 364.59 89.9912 365.134C89.5704 365.41 89.077 365.585 88.5474 365.621C88.4458 365.635 88.337 365.635 88.2282 365.635L82.7505 365.519L81.2994 365.49L75.488 365.374L74.1675 365.345L74.0369 365.062L71.8458 360.277L70.8011 365.272L68.24 365.222L66.789 365.192L65.4902 365.163L66.7382 353.212V353.19L67.3548 347.309L68.1674 347.279L69.2049 347.236L73.9644 347.047L75.4154 346.989L76.7431 346.938H76.7504L79.1809 346.844L79.0721 351.912L81.2487 353.48L82.6997 354.533L88.5184 358.73L89.9694 359.783L90.1436 359.906C90.9852 360.516 91.4713 361.497 91.4495 362.535Z" fill="#1A4870"/>
<path d="M140.161 251.07L138.87 264.053L133.305 320.094L131.912 334.108L131.506 338.218L126.137 338.232H125.578L124.686 338.239L118.889 338.254L117.438 338.261H116.981L111.634 338.276L110.183 338.283L104.487 338.297L109.936 280.028V280.013L111.322 265.157V265.142L112.033 257.562L111.285 256.124L109.82 253.329V253.321L103.979 242.11L102.514 239.308L96.6661 228.089L95.2078 225.279V225.272L89.3528 214.068V214.061L87.8945 211.258L86.0734 207.766L88.221 288.625V288.668L89.5849 340.113L88.4386 340.236L82.6417 340.868L81.1906 341.028L77.5267 341.427L75.3937 341.659L73.9426 341.819L69.3065 342.32L68.1457 342.451L66.6947 342.611L60.9049 343.242L59.4539 343.395L57.8795 343.569C57.8795 343.569 60.9195 212.369 55.5143 190.172C53.6715 182.628 54.5203 174.822 56.4357 167.822V167.815C56.6244 167.111 56.8275 166.421 57.0452 165.731V165.724C57.2701 164.991 57.5095 164.264 57.7562 163.553C58.0536 162.689 58.3656 161.847 58.6776 161.026C59.1419 159.828 59.6281 158.673 60.1142 157.563C62.1601 152.93 64.3367 149.132 65.8676 146.678C66.4625 145.727 66.9558 144.972 67.3113 144.456C67.6814 143.912 67.8918 143.621 67.8918 143.621L72.5932 138.974V138.967L72.8181 138.749L72.6004 138.43V138.422L70.656 135.503L72.6367 135.562L73.0212 135.569H73.072L74.5231 135.612L80.32 135.772L81.771 135.816L87.5752 135.975L89.0263 136.012L94.8232 136.171H94.8305L96.2815 136.215L102.078 136.375L103.53 136.418L108.434 136.556H108.441L109.326 136.578L109.602 136.585L110.799 141.073L116.691 163.146L118.163 168.672L124.062 190.753L125.535 196.279L131.426 218.345L132.899 223.871L138.797 245.951L140.161 251.07Z" fill="#1A4870"/>
<path d="M52.6033 123.033C51.9816 122.377 51.9245 121.401 52.3847 120.623C52.6576 120.162 52.7951 119.62 52.7474 119.085C52.7381 118.981 52.7218 94.1171 52.699 94.0155C52.4172 92.7574 52.6812 91.4637 53.5406 90.5032C54.9201 88.9613 55.645 86.5779 55.9985 84.4427C56.3853 82.1062 56.6515 79.7137 57.5859 77.5378C58.9339 74.3991 61.9835 71.6685 65.9576 73.1711C67.643 73.8084 69.0196 75.0778 69.9212 76.6389C71.8122 79.9129 71.6946 83.7848 71.5467 87.4879L72.3209 86.0505C72.0869 90.0786 72.6769 94.153 74.0439 97.9489C73.1534 97.7425 72.4757 123.686 72.7345 124.564C72.9933 125.441 73.7737 126.04 74.4386 126.667C75.2766 127.459 76.0528 128.617 75.1991 129.749C74.7888 130.294 74.1331 130.603 73.4548 130.667C67.0953 131.269 60.6138 130.532 54.5496 128.524C53.198 128.077 51.7536 127.471 51.087 126.212C50.4205 124.953 51.1814 122.962 52.6033 123.033Z" fill="white"/>
<path d="M62.8986 128.919C62.5261 127.326 65.6017 116.377 64.2928 112.506C63.436 109.971 61.3768 108.102 61.4034 105.082C61.4034 104.885 61.414 104.683 61.4406 104.475C61.4516 104.368 61.4734 104.258 61.4893 104.149C58.8258 94.656 57.4931 77.0069 57.4931 77.0069L70.2374 61.7972C70.2454 61.7315 70.2562 61.6673 70.263 61.6007C70.5238 59.3533 72.4164 60.9844 74.4917 59.8021C75.4176 59.2802 74.935 55.0131 76.0045 55.306C76.0412 55.3161 76.0742 55.3309 76.1101 55.3422L76.1436 55.306L78.2454 53.0427L89.8102 51.9776L92.4973 55.6468L92.4992 55.6732C94.7887 56.0979 95.3772 56.3495 95.7265 58.89C95.7903 59.3693 95.8329 59.8486 95.8488 60.3332C95.9278 62.1454 105.394 63.9636 104.961 65.687L108.069 67.7609C108.069 67.7609 119.75 82.3323 115.493 86.5926C113.876 88.2115 113.029 90.9008 112.684 93.8244C112.672 93.9234 112.65 94.0121 112.633 94.1053C113.121 95.673 113.801 98.3356 112.688 98.9102C110.707 99.9331 106.44 129.692 110.948 131.816C121.627 136.846 92.9788 146.753 81.581 147.355C78.2394 147.531 74.2539 147.339 71.0612 146.444L60.354 147.35L61.2376 142.044C53.5646 141.389 63.2818 130.569 62.8986 128.919Z" fill="white"/>
<path d="M154.059 48.2576L122.837 75.1519C120.532 78.1676 116.236 78.775 113.187 76.5165C109.987 74.1463 109.428 69.5748 111.963 66.5024L145.285 39.1093L156.317 9.85654C155.125 7.8247 155.182 5.19294 156.671 3.17952C158.661 0.488798 162.453 -0.0781306 165.142 1.91325C167.83 3.90463 168.397 7.70022 166.407 10.3909C165.681 11.3733 164.713 12.069 163.647 12.464L154.059 48.2576Z" fill="#FFB6B6"/>
<path d="M153.596 52.7425C153.756 53.657 132.928 70.4424 132.093 70.8469C131.598 71.0867 131.173 71.4722 130.911 71.9569C130.86 72.0512 130.815 72.1488 130.777 72.2486C130.305 73.4852 129.346 74.4424 128.066 74.7763C126.011 75.3123 124.04 76.9402 122.527 78.5665C120.871 80.3462 119.287 82.2424 117.254 83.5737C114.321 85.4941 110.163 86.099 107.614 82.5565C106.533 81.0541 106.075 79.1862 106.189 77.3384C106.427 73.463 108.722 70.2165 110.948 67.1317L109.471 67.9222C111.955 64.6081 116.607 63.7607 117.59 59.7362C118.235 60.4185 119.485 59.7912 119.761 58.8935C120.037 57.9957 140.032 41.1226 139.819 40.2079C139.55 39.0549 139.543 37.6228 140.915 37.1387C141.575 36.9059 142.311 37.0133 142.928 37.3436C148.711 40.4404 150.992 41.7774 155.043 46.939C155.946 48.0894 156.838 49.428 156.695 50.8838C156.552 52.3396 154.772 53.6107 153.596 52.7425Z" fill="white"/>
<path d="M86.8341 52.9276C96.9418 52.9276 105.136 44.7271 105.136 34.6114C105.136 24.4956 96.9418 16.2951 86.8341 16.2951C76.7264 16.2951 68.5325 24.4956 68.5325 34.6114C68.5325 44.7271 76.7264 52.9276 86.8341 52.9276Z" fill="#FFB6B6"/>
<path d="M66.2726 25.8451C63.7126 16.5042 91.6139 8.49414 97.0359 16.0164C97.7899 14.947 100.576 14.2974 101.855 14.6254C103.133 14.9535 104.208 15.7736 105.257 16.5676C106.699 17.6764 108.194 18.8246 109.079 20.419C109.971 22.0068 110.108 24.172 108.909 25.5498C107.958 26.6455 106.288 32.4681 104.858 32.7568C103.862 32.9602 103.023 33.1243 102.302 33.2424C101.659 32.3041 100.021 31.1255 100.139 29.9904C99.1686 30.6334 99.523 31.7647 99.7187 32.9209C100.37 36.7709 115.046 66.5738 106.64 57.7915C105.808 58.2836 104.778 58.7429 103.592 59.1628C101.579 56.125 99.9271 52.5426 98.8388 48.7961L98.8311 48.8653C98.4564 52.1211 96.079 54.7926 92.9337 55.7045C80.3162 59.3628 70.1102 53.9948 66.5992 44.3146C67.8845 41.7032 68.4444 41.9868 68.3293 41.9092C66.7249 40.827 64.5198 41.5347 63.8302 43.3439C63.6268 43.8773 63.4421 44.3328 63.282 44.6754C61.4529 38.1273 59.2774 39.0724 66.2726 25.8451Z" fill="#1A4870"/>
<path d="M74.977 19.068L76.2658 12.4737C76.3742 11.9193 76.477 11.3179 76.2272 10.8114C75.9063 10.1606 75.0815 9.89085 74.3638 9.99457C73.646 10.0983 73.1092 10.7544 72.3951 10.8807C69.9124 11.32 66.6307 8.86576 65.7411 15.0745C65.3702 17.6632 61.2428 17.9366 59.8644 20.1583C58.486 22.38 58.3168 25.5868 60.1979 27.4019C61.7004 28.8515 64.1132 29.0188 66.0645 28.2783C68.0159 27.5378 69.5819 26.0421 70.9499 24.4648C72.3178 22.8875 73.5566 21.1807 75.1345 19.8137" fill="#1A4870"/>
<path d="M65.2898 29.0979C70.3245 28.394 73.7563 26.5614 75.4899 23.6515C77.7587 19.8424 76.2389 15.6482 76.1732 15.4714L75.1089 15.8674C75.1231 15.9059 76.5017 19.7453 74.5085 23.0794C72.9579 25.673 69.8033 27.3194 65.1329 27.9726L65.2898 29.0979Z" fill="#1A4870"/>
<path d="M458.039 354.157C459.537 354.251 460.366 352.387 459.232 351.301L459.119 350.852C459.134 350.816 459.149 350.78 459.164 350.744C460.68 347.127 465.817 347.152 467.32 350.775C468.654 353.99 470.352 357.211 470.77 360.611C470.958 362.111 470.873 363.64 470.541 365.113C473.666 358.28 475.311 350.818 475.311 343.315C475.311 341.429 475.208 339.544 474.997 337.663C474.824 336.125 474.585 334.596 474.275 333.081C472.602 324.893 468.98 317.094 463.755 310.58C461.243 309.205 459.149 307.058 457.884 304.483C457.429 303.554 457.073 302.555 456.904 301.538C457.19 301.575 457.982 297.218 457.766 296.951C458.165 296.346 458.878 296.045 459.313 295.455C461.477 292.519 464.458 293.032 466.014 297.021C469.338 298.701 469.371 301.485 467.331 304.164C466.033 305.868 465.855 308.174 464.716 309.998C464.833 310.148 464.955 310.294 465.072 310.444C467.22 313.201 469.078 316.165 470.645 319.279C470.202 315.818 470.856 311.649 471.97 308.962C473.238 305.899 475.616 303.32 477.709 300.673C480.224 297.493 485.38 298.881 485.823 302.912C485.828 302.951 485.832 302.99 485.836 303.029C485.525 303.205 485.22 303.391 484.923 303.588C483.225 304.711 483.812 307.345 485.823 307.655L485.869 307.662C485.756 308.783 485.564 309.895 485.283 310.988C487.969 321.382 482.17 325.168 473.891 325.338C473.708 325.432 473.53 325.526 473.348 325.615C474.186 327.979 474.857 330.403 475.353 332.861C475.798 335.032 476.108 337.227 476.281 339.431C476.497 342.212 476.478 345.008 476.244 347.784L476.258 347.685C476.853 344.628 478.512 341.772 480.92 339.792C484.508 336.843 489.578 335.756 493.449 333.385C495.312 332.244 497.7 333.719 497.375 335.881L497.359 335.984C496.783 336.219 496.22 336.491 495.677 336.796C495.366 336.971 495.061 337.158 494.763 337.355C493.066 338.478 493.653 341.112 495.664 341.422L495.709 341.429C495.742 341.434 495.77 341.439 495.803 341.443C494.814 343.793 493.437 345.974 491.712 347.854C490.033 356.929 482.82 357.789 475.105 355.147H475.1C474.257 358.824 473.024 362.416 471.44 365.84H458.366C458.319 365.694 458.277 365.544 458.235 365.399C459.444 365.474 460.662 365.404 461.853 365.183C460.883 363.992 459.913 362.791 458.943 361.6C458.919 361.577 458.9 361.553 458.882 361.53C458.39 360.92 457.893 360.315 457.401 359.705L457.401 359.705C457.37 357.833 457.594 355.967 458.039 354.157Z" fill="#1F316F"/>
<path d="M0 366.136C0 366.615 0.38455 367 0.863417 367H503.137C503.615 367 504 366.615 504 366.136C504 365.657 503.615 365.272 503.137 365.272H0.863417C0.38455 365.272 0 365.657 0 366.136Z" fill="#CCCCCC"/>
<path d="M347.781 96.8226V134.207C347.781 137.513 345.093 140.202 341.79 140.202H304.436C301.132 140.202 298.445 137.513 298.445 134.207V96.8226C298.445 93.5166 301.132 90.827 304.436 90.827H341.79C345.093 90.827 347.781 93.5166 347.781 96.8226ZM341.79 139.497C344.709 139.497 347.076 137.128 347.076 134.207V115.359C347.076 102.2 336.417 91.5324 323.268 91.5324H304.436C301.516 91.5324 299.15 93.9009 299.15 96.8226V134.207C299.15 137.128 301.516 139.497 304.436 139.497L341.79 139.497Z" fill="white"/>
<path d="M347.12 115.515C347.12 102.245 335.244 90.6374 322.144 88.5825C305.564 85.9815 294.558 100.461 296.751 115.448C298.673 128.578 316.953 147.766 323.113 136.015C330.161 122.568 347.12 128.784 347.12 115.515Z" fill="#1F316F"/>
<path d="M328.085 106.095H316.026C315.722 106.095 315.475 105.848 315.475 105.543C315.475 105.239 315.722 104.992 316.026 104.992H328.085C328.389 104.992 328.637 105.239 328.637 105.543C328.637 105.848 328.389 106.095 328.085 106.095Z" fill="#3F3D56"/>
<path d="M328.085 117.862H316.026C315.722 117.862 315.475 117.614 315.475 117.31C315.475 117.006 315.722 116.758 316.026 116.758H328.085C328.389 116.758 328.637 117.006 328.637 117.31C328.637 117.614 328.389 117.862 328.085 117.862Z" fill="#3F3D56"/>
<path d="M334.556 111.983H309.555C309.251 111.983 309.003 111.735 309.003 111.431C309.003 111.126 309.251 110.879 309.555 110.879H334.556C334.86 110.879 335.108 111.126 335.108 111.431C335.108 111.735 334.86 111.983 334.556 111.983Z" fill="#3F3D56"/>
</g>
<defs>
<clipPath id="clip0_6_174">
<rect width="504" height="367" fill="white"/>
</clipPath>
</defs>
</svg>
