<svg width="40" height="40" viewBox="0 0 40 40" fill="none" xmlns="http://www.w3.org/2000/svg">
<g clip-path="url(#clip0_6_53)">
<path fill-rule="evenodd" clip-rule="evenodd" d="M22.6 2.092C23.006 2.21969 23.3607 2.47356 23.6125 2.81671C23.8643 3.15986 24.0001 3.57439 24 4V14H32C32.3659 13.9998 32.7247 14.1 33.0376 14.2897C33.3505 14.4793 33.6053 14.7511 33.7744 15.0755C33.9435 15.3999 34.0204 15.7645 33.9967 16.1295C33.973 16.4946 33.8497 16.8462 33.64 17.146L19.64 37.146C19.3964 37.4951 19.0477 37.7573 18.6447 37.8945C18.2417 38.0317 17.8055 38.0368 17.3994 37.909C16.9934 37.7811 16.6387 37.5271 16.387 37.1837C16.1353 36.8404 15.9998 36.4257 16 36V26H8.00004C7.6342 26.0002 7.27533 25.9 6.96247 25.7104C6.64962 25.5207 6.39477 25.2489 6.22565 24.9245C6.05654 24.6001 5.97965 24.2355 6.00335 23.8705C6.02704 23.5054 6.15041 23.1538 6.36004 22.854L20.36 2.854C20.6041 2.50558 20.9528 2.24403 21.3556 2.10735C21.7585 1.97068 22.1944 1.96601 22.6 2.094V2.092Z" fill="#5B99C2"/>
</g>
<defs>
<clipPath id="clip0_6_53">
<rect width="40" height="40" fill="white"/>
</clipPath>
</defs>
</svg>
